
        <svg xmlns="http://www.w3.org/2000/svg" xmlns:xlink="http://www.w3.org/1999/xlink" version="1.1" width="3171.4285714285716" 
        height="1439.7236560945657" viewBox="0 0 3171.4285714285716 1439.7236560945657">
			
			<g transform="scale(8.57142857142857) translate(10, 10)">
				<defs id="SvgjsDefs1149"><linearGradient id="SvgjsLinearGradient1156"><stop id="SvgjsStop1157" stop-color="#fbb040" offset="0"></stop><stop id="SvgjsStop1158" stop-color="#f9ed32" offset="1"></stop></linearGradient><linearGradient id="SvgjsLinearGradient1159"><stop id="SvgjsStop1160" stop-color="#fbb040" offset="0"></stop><stop id="SvgjsStop1161" stop-color="#f9ed32" offset="1"></stop></linearGradient></defs><g id="SvgjsG1150" featureKey="symbolFeature-0" transform="matrix(1.2835455846959731,0,0,1.2835455846959731,110.58047267236678,-14.37792310322359)" fill="url(#SvgjsLinearGradient1156)"><g xmlns="http://www.w3.org/2000/svg" display="none"><rect x="-137.382" y="-8.38" display="inline" fill="url(#SvgjsLinearGradient1156)" stroke="url(#SvgjsLinearGradient1156)" stroke-width="0.4634" stroke-miterlimit="10" width="1226.941" height="1582.379"></rect></g><g xmlns="http://www.w3.org/2000/svg"><g><path d="M93.626,33.986c-2.331-4.859-7.324-8-12.718-8c-0.508,0-1.012,0.027-1.512,0.081c-0.671-5.771-4.906-10.803-10.833-12.167    c-1.042-0.24-2.108-0.361-3.169-0.361c-1.32,0-2.633,0.187-3.902,0.555c-5.703,1.654-9.686,7.088-9.686,13.215v0.971v10.629V61.1    v7.968v3.569c0,7.236,5.489,13.293,12.497,13.79c0.328,0.023,0.661,0.035,0.989,0.035c1.051,0,2.104-0.12,3.13-0.356    c5.924-1.337,10.18-6.348,10.876-12.112c0.518,0.058,1.041,0.087,1.568,0.087c5.372,0,10.356-3.122,12.699-7.953    c2.656-5.478,1.39-11.935-2.69-16.073C94.972,45.932,96.264,39.477,93.626,33.986z M90.917,64.845    c-1.929,3.977-5.91,6.295-10.052,6.295c-1.555,0-3.132-0.327-4.633-1.015c1.215,5.934-2.537,11.776-8.471,13.115    c-0.826,0.19-1.661,0.281-2.471,0.281c-0.262,0-0.522-0.009-0.781-0.028c-5.569-0.395-9.764-5.273-9.764-10.856v-3.569V61.1    V38.908V28.279v-0.971c0-4.738,3.014-9.071,7.564-10.39c0.989-0.287,2.025-0.438,3.083-0.438c0.828,0,1.668,0.093,2.51,0.286    c5.925,1.363,9.652,7.223,8.412,13.156c1.489-0.674,3.053-0.995,4.593-0.995c4.159,0,8.15,2.335,10.068,6.333    c2.636,5.487,0.38,12.057-5.033,14.784C91.347,52.796,93.57,59.374,90.917,64.845z"></path><g><path d="M17.646,48.444h8.611v9.173h9.966v-1.961h-0.865h-7.14v-8.086v-1.086h-0.959h-7.652v-5.537h2.05v-0.808V34.69h-6.257     v6.257h2.246V48.444z M17.36,38.986v-2.335h2.335v2.335H17.36z"></path><path d="M19.606,66.513v-6.847h2.05v-0.764v-5.493h-6.257v6.257h2.246v8.807h9.778v-0.98v0v-0.98h-0.658H19.606z M17.36,57.705     V55.37h2.335v2.335H17.36z"></path><path d="M39.921,52.143h-0.98v2.505v19.707h-2.822v-2.148h-4.052h-2.205v6.257h6.257v-2.148h4.783V52.143H39.921L39.921,52.143z      M34.158,76.503h-2.335v-2.335h2.335V76.503z"></path><path d="M34.714,30.031v-2.148h3.468v9.126v1.267h1.961V25.923h-5.429v-2.148h-6.256v6.256h4.326H34.714z M32.754,28.071h-2.335     v-2.335h2.335V28.071z"></path><path d="M68.447,59.847h-0.98v1.657v12.712h-3.733v-2.148h-2.516h-3.741v6.257h6.257v-2.148h5.693v-16.33H68.447L68.447,59.847z      M61.774,76.364h-2.335v-2.335h2.335V76.364z"></path><path d="M82.615,43.399v-7.812l-16.581,0.091h-5.175v-8.914h3.995v2.148h2.987h3.269v-6.257h-6.257v2.148h-5.956v30.792h-1.42     v6.257h6.257v-6.257h-2.876v-0.542V37.638h11.289v10.583h-1.779v0.322v5.196h5.518v-5.518h-1.778V37.548h1.297h5.25v4.702v1.149     h-1.778v5.517h5.518v-5.517H82.615z M66.814,24.616h2.335v2.335h-2.335V24.616z M61.774,57.556v2.335h-2.335v-2.335H61.774z      M73.925,51.779h-1.596v-1.596h1.596V51.779z M82.432,46.955h-1.596v-1.596h1.596V46.955z"></path><path d="M78.876,59.037v0.82h1.778v5.537h-6.759h-0.768v0.98v0v0.98h9.487v-7.497h1.778V54.34h-5.517V59.037z M80.836,56.3h1.596     v1.596h-1.596V56.3z"></path><path d="M38.51,14.09c-1.27-0.37-2.58-0.55-3.9-0.55c-1.06,0-2.13,0.12-3.17,0.36c-5.93,1.36-10.16,6.4-10.84,12.17     c-0.49-0.06-1-0.08-1.51-0.08c-5.39,0-10.38,3.14-12.72,8c-2.63,5.49-1.34,11.94,2.76,16.06c-4.08,4.14-5.35,10.6-2.69,16.08     c2.34,4.83,7.32,7.95,12.7,7.95c0.52,0,1.05-0.03,1.56-0.09c0.7,5.77,4.96,10.78,10.89,12.12c1.02,0.23,2.07,0.35,3.12,0.35     c0.33,0,0.66-0.01,0.99-0.03c7.01-0.5,12.5-6.56,12.5-13.79V27.31C48.2,21.18,44.21,15.75,38.51,14.09z M45.25,72.64     c0,5.58-4.19,10.46-9.76,10.85c-0.26,0.02-0.52,0.03-0.78,0.03c-0.81,0-1.64-0.09-2.47-0.28c-5.93-1.34-9.69-7.18-8.47-13.11     c-1.5,0.68-3.08,1.01-4.63,1.01c-4.15,0-8.13-2.32-10.06-6.3c-2.65-5.47-0.43-12.04,4.98-14.8c-5.42-2.72-7.67-9.29-5.03-14.78     c1.91-4,5.9-6.33,10.06-6.33c1.54,0,3.11,0.32,4.6,0.99c-1.24-5.93,2.48-11.79,8.41-13.15c0.84-0.2,1.68-0.29,2.51-0.29     c1.06,0,2.09,0.15,3.08,0.44c4.55,1.32,7.56,5.65,7.56,10.39v17.33h-7.5v-2.15h-6.26v6.26h6.26V46.6h7.5V72.64z M35.79,44.45     v2.34h-2.33v-2.34H35.79z"></path></g></g></g></g><g id="SvgjsG1151" featureKey="nameFeature-0" transform="matrix(0.6937935038767878,0,0,0.6937935038767878,-2.316001689098142,103.30101070489596)" fill="#f7f7f7"><path d="M31.995 35.114 l2.324 -0.034844 l0.069572 4.6484 l-2.3241 0.034805 c-0.36176 0.005508 -0.77084 0.011797 -1.2174 0.011797 c-3.2279 0 -8.4052 -0.32016 -11.676 -3.5423 c-1.456 -1.4345 -2.3731 -3.258 -2.7396 -5.44 l-8.4109 0 l-0.033203 8.9792 l-4.6492 -0.017266 l0.074804 -20.255 l0 -2.327 l0.0086328 0 l0 -0.0086328 l2.3223 0.0086328 l21.902 0 c2.9457 0 7.3276 1.8136 7.3276 6.8096 c0 4.9964 -4.0724 6.81 -6.8096 6.81 l-6.9651 0 c0.25086 0.8504 0.65684 1.5585 1.2347 2.1279 c2.337 2.3019 7.216 2.2292 9.5608 2.1939 z M8.0628 26.143 l20.081 -0.000039062 c0.20297 -0.0070704 0.80852 -0.083436 1.3076 -0.35942 c0.43216 -0.2391 0.87372 -0.64012 0.87372 -1.8015 c0 -0.93384 -0.31598 -1.4394 -1.1276 -1.8033 c-0.73764 -0.33062 -1.543 -0.3573 -1.5506 -0.3573 l-19.584 0 l0 4.3216 z M58.031 15.421 l18.353 24.38 l-5.9015 0 l-5.132 -6.7948 l-14.639 0 l-5.0572 6.7948 l-5.8354 0 z M54.232 28.311 l7.5966 0 l-3.7984 -5.0644 z M113.094 21.93 l-27.18 0 l0 4.3648 l18.12 0 l0 4.6951 l-18.12 0 l0 9.0599 l-4.6954 0 l0 -22.815 l31.875 0 l0 4.6951 z M126.11099999999999 15.421 l18.353 24.38 l-5.9015 0 l-5.132 -6.7948 l-14.639 0 l-5.0572 6.7948 l-5.8354 0 z M122.312 28.311 l7.5966 0 l-3.7984 -5.0644 z M181.174 21.902 l-27.18 0.000039062 l0 4.3726 l18.128 0.0675 l-0.017266 4.6956 l-18.111 -0.0675 l0 4.3564 l27.18 0 l0 4.6954 l-31.875 0 l0 -22.815 l31.875 0 l0 4.6951 z M192.554 35.238 l27.18 0 l0 4.6954 l-31.875 0 l0 -22.815 l4.6954 0 l0 18.119 z M249.796 22.009 c-0.43632 0.24117 -0.88236 0.64612 -0.88236 1.8193 c0 0.91448 0.29558 1.4144 1.0547 1.7822 c0.76772 0.37195 1.6239 0.39914 1.6671 0.4002 l17.067 0.06672 c2.9656 0 7.3912 1.8316 7.3912 6.8776 s-4.1128 6.8776 -6.8776 6.8776 l-24.997 0 l0 -4.6954 l24.977 0 c0.2048 -0.0070704 0.81636 -0.08422 1.3204 -0.36305 c0.43656 -0.24144 0.88256 -0.64636 0.88256 -1.8193 c0 -0.91448 -0.29558 -1.4144 -1.0547 -1.7822 c-0.7654 -0.37094 -1.6208 -0.39894 -1.6686 -0.40024 l-17.056 -0.07586 l0 0.0091406 c-2.975 0 -7.4008 -1.8316 -7.4008 -6.8776 s4.1128 -6.8776 6.8776 -6.8776 l24.997 0 l0 4.6954 l-24.976 0 c-0.20457 0.0070704 -0.81668 0.08422 -1.321 0.36305 z M314.654 21.902 l-27.18 0.000039062 l0 4.3726 l18.128 0.0675 l-0.017266 4.6956 l-18.111 -0.0675 l0 4.3564 l27.18 0 l0 4.6954 l-31.875 0 l0 -22.815 l31.875 0 l0 4.6951 z M349.995 35.114 l2.324 -0.034844 l0.069572 4.6484 l-2.3241 0.034805 c-0.36176 0.005508 -0.77084 0.011797 -1.2174 0.011797 c-3.2279 0 -8.4052 -0.32016 -11.676 -3.5423 c-1.456 -1.4345 -2.3731 -3.258 -2.7396 -5.44 l-8.4109 0 l-0.033203 8.9792 l-4.6492 -0.017266 l0.074804 -20.255 l0 -2.327 l0.0086328 0 l0 -0.0086328 l2.3223 0.0086328 l21.902 0 c2.9457 0 7.3276 1.8136 7.3276 6.8096 c0 4.9964 -4.0724 6.81 -6.8096 6.81 l-6.9651 0 c0.25086 0.8504 0.65684 1.5585 1.2347 2.1279 c2.337 2.3019 7.216 2.2292 9.5608 2.1939 z M326.0628 26.143 l20.081 -0.000039062 c0.20297 -0.0070704 0.80852 -0.083436 1.3076 -0.35942 c0.43216 -0.2391 0.87372 -0.64012 0.87372 -1.8015 c0 -0.93384 -0.31598 -1.4394 -1.1276 -1.8033 c-0.73764 -0.33062 -1.543 -0.3573 -1.5506 -0.3573 l-19.584 0 l0 4.3216 z M388.355 35.114 l2.324 -0.034844 l0.069572 4.6484 l-2.3241 0.034805 c-0.36176 0.005508 -0.77084 0.011797 -1.2174 0.011797 c-3.2279 0 -8.4052 -0.32016 -11.676 -3.5423 c-1.456 -1.4345 -2.3731 -3.258 -2.7396 -5.44 l-8.4109 0 l-0.033203 8.9792 l-4.6492 -0.017266 l0.074804 -20.255 l0 -2.327 l0.0086328 0 l0 -0.0086328 l2.3223 0.0086328 l21.902 0 c2.9457 0 7.3276 1.8136 7.3276 6.8096 c0 4.9964 -4.0724 6.81 -6.8096 6.81 l-6.9651 0 c0.25086 0.8504 0.65684 1.5585 1.2347 2.1279 c2.337 2.3019 7.216 2.2292 9.5608 2.1939 z M364.4228 26.143 l20.081 -0.000039062 c0.20297 -0.0070704 0.80852 -0.083436 1.3076 -0.35942 c0.43216 -0.2391 0.87372 -0.64012 0.87372 -1.8015 c0 -0.93384 -0.31598 -1.4394 -1.1276 -1.8033 c-0.73764 -0.33062 -1.543 -0.3573 -1.5506 -0.3573 l-19.584 0 l0 4.3216 z M414.391 15.421 l18.353 24.38 l-5.9015 0 l-5.132 -6.7948 l-14.639 0 l-5.0572 6.7948 l-5.8354 0 z M410.59200000000004 28.311 l7.5966 0 l-3.7984 -5.0644 z M464.75800000000004 17.185 l4.6952 0 l0 22.5 l-27.179 -14.196 l0 14.511 l-4.6954 0 l0 -22.5 l27.18 14.196 l0 -14.511 z M506.009 19.299 c1.8355 1.8198 1.8204 4.452 1.7971 8.4364 c-0.0018359 0.29664 -0.0033984 0.604 -0.0046876 0.92236 c-0.0089064 2.3647 -0.015195 4.0732 -0.26344 5.514 c-0.21137 1.2284 -0.69948 2.9991 -2.4872 4.1908 c-2.2642 1.5093 -5.6464 1.5434 -13.056 1.6174 c-1.1572 0.011524 -2.2245 0.020156 -3.2091 0.020156 c-5.8708 0 -8.822 -0.31074 -10.708 -2.1844 c-1.964 -1.9514 -1.953 -4.8252 -1.9368 -9.1752 c0.018047 -4.8536 0.029024 -7.7832 2.4894 -9.602 c2.1227 -1.569 5.2056 -1.6103 11.96 -1.7011 l1.3479 -0.018555 c8.4176 -0.12031 11.902 -0.17027 14.071 1.9805 z M503.14300000000003 27.708 c0.013086 -2.2896 0.026914 -4.6576 -0.41728 -5.0976 c-0.55112 -0.54644 -3.0246 -0.67276 -6.3168 -0.67276 c-1.3547 0 -2.8484 0.021445 -4.4036 0.043672 l-1.3521 0.018555 c-4.8388 0.064884 -8.3348 0.11195 -9.25 0.78812 c-0.5776 0.42692 -0.587 2.9488 -0.59796 5.8692 c-0.010195 2.7118 -0.019883 5.2732 0.56032 5.8496 c0.9108 0.90508 5.8276 0.85564 10.583 0.80856 c5.4604 -0.054412 9.4056 -0.093908 10.516 -0.8342 c0.65372 -0.4358 0.66208 -2.7032 0.67384 -5.8416 c0.0010547 -0.32148 0.0028906 -0.632 0.0047264 -0.93176 z"></path></g><g id="SvgjsG1152" featureKey="sloganFeature-0" transform="matrix(0.6521968960072474,0,0,0.6521968960072474,92.80895802303812,131.73901551996377)" fill="url(#SvgjsLinearGradient1159)"><path d="M1.8262 20 l0 -14.111 l2.9297 0 l0 14.111 l-2.9297 0 z M17.802721875 9.766 c2.4121 0 3.7402 1.25 3.7402 3.4766 l0 6.7578 l-2.8223 0 l0 -6.1523 c0 -1.3379 -0.83008 -1.8262 -1.7969 -1.8262 c-1.1621 0 -2.2168 0.58594 -2.2363 2.4414 l0 5.5371 l-2.8125 0 l0 -10.039 l2.8125 0 l0 1.1133 c0.70313 -0.83008 1.7871 -1.3086 3.1152 -1.3086 z M31.85545625 20 c-1.9531 0 -3.0664 -1.1328 -3.0664 -3.1348 l0 -4.7461 l-1.9727 0 l0 -2.1582 l0.63477 0 c1.0645 0 1.6504 -0.41016 1.6504 -1.9141 l0 -1.3281 l2.5391 0 l0 3.2422 l2.0703 0 l0 2.1582 l-2.0703 0 l0 4.4434 c0 0.89844 0.43945 1.2988 1.1621 1.2988 l0.9082 0 l0 2.1387 l-1.8555 0 z M49.179249999999996 14.834 l-0.029297 0.67383 l-7.4414 0 c0.11719 1.6699 1.2305 2.4707 2.5684 2.4707 c1.0059 0 1.7871 -0.46875 2.168 -1.3574 l2.5781 0.38086 c-0.66406 2.0313 -2.4707 3.1934 -4.7266 3.1934 c-3.2422 0 -5.3613 -1.9141 -5.3613 -5.2148 s2.1777 -5.2344 5.2734 -5.2344 c2.8418 0 4.9609 1.5723 4.9707 5.0879 z M44.22855 11.7383 c-1.2793 0 -2.168 0.5957 -2.4414 1.9336 l4.6094 0 c-0.14648 -1.2793 -1.0156 -1.9336 -2.168 -1.9336 z M55.1660375 20 l0 -15 l2.8418 0 l0 15 l-2.8418 0 z M64.765646875 20 l0 -15 l2.8418 0 l0 15 l-2.8418 0 z M75.80075625 8.457 c-0.88867 0 -1.6309 -0.72266 -1.6309 -1.6211 c0 -0.88867 0.74219 -1.6113 1.6309 -1.6113 c0.86914 0 1.6113 0.72266 1.6113 1.6113 c0 0.89844 -0.74219 1.6211 -1.6113 1.6211 z M74.36525625 20 l0 -10.039 l2.832 0 l0 10.039 l-2.832 0 z M90.8691 9.961 l2.6758 0 l0 9.2871 c0 3.9063 -2.1191 5.4883 -5.3223 5.4883 c-2.8809 0 -4.4434 -1.2109 -5.1758 -3.1152 l2.334 -0.99609 c0.56641 1.2988 1.3867 1.9238 2.7344 1.9238 c1.7773 0 2.6074 -1.1133 2.6074 -3.0957 l0 -1.1719 c-0.58594 0.80078 -1.7383 1.3672 -3.0469 1.3672 c-2.4902 0 -4.5801 -1.9629 -4.5801 -4.9609 c0 -3.0078 2.0996 -4.9219 4.5996 -4.9219 c1.4063 0 2.5586 0.625 3.1055 1.5234 z M88.3984 17.373 c1.4648 0 2.5977 -1.1914 2.5977 -2.6855 c0 -1.5039 -1.1133 -2.6953 -2.5977 -2.6953 c-1.4746 0 -2.5879 1.1426 -2.5879 2.6953 c0 1.5332 1.1328 2.6855 2.5879 2.6855 z M109.755421875 14.834 l-0.029297 0.67383 l-7.4414 0 c0.11719 1.6699 1.2305 2.4707 2.5684 2.4707 c1.0059 0 1.7871 -0.46875 2.168 -1.3574 l2.5781 0.38086 c-0.66406 2.0313 -2.4707 3.1934 -4.7266 3.1934 c-3.2422 0 -5.3613 -1.9141 -5.3613 -5.2148 s2.1777 -5.2344 5.2734 -5.2344 c2.8418 0 4.9609 1.5723 4.9707 5.0879 z M104.804721875 11.7383 c-1.2793 0 -2.168 0.5957 -2.4414 1.9336 l4.6094 0 c-0.14648 -1.2793 -1.0156 -1.9336 -2.168 -1.9336 z M121.669909375 9.766 c2.4121 0 3.7402 1.25 3.7402 3.4766 l0 6.7578 l-2.8223 0 l0 -6.1523 c0 -1.3379 -0.83008 -1.8262 -1.7969 -1.8262 c-1.1621 0 -2.2168 0.58594 -2.2363 2.4414 l0 5.5371 l-2.8125 0 l0 -10.039 l2.8125 0 l0 1.1133 c0.70313 -0.83008 1.7871 -1.3086 3.1152 -1.3086 z M135.72264375 20 c-1.9531 0 -3.0664 -1.1328 -3.0664 -3.1348 l0 -4.7461 l-1.9727 0 l0 -2.1582 l0.63477 0 c1.0645 0 1.6504 -0.41016 1.6504 -1.9141 l0 -1.3281 l2.5391 0 l0 3.2422 l2.0703 0 l0 2.1582 l-2.0703 0 l0 4.4434 c0 0.89844 0.43945 1.2988 1.1621 1.2988 l0.9082 0 l0 2.1387 l-1.8555 0 z M162.46140625 20 l-1.0254 -2.9102 l-5.9277 0 l-1.0254 2.9102 l-2.998 0 l5.1953 -14.111 l3.584 0 l5.1953 14.111 l-2.998 0 z M156.36720625 14.6387 l4.209 0 l-2.0996 -5.9863 z M177.705109375 9.961 l2.8125 0 l0 10.039 l-2.666 0 l-0.068359 -1.2109 c-0.70313 0.88867 -1.8164 1.4063 -3.1934 1.4063 c-2.4121 0 -3.7402 -1.2598 -3.7402 -3.4766 l0 -6.7578 l2.8223 0 l0 6.1523 c0 1.3281 0.83008 1.8164 1.8066 1.8164 c1.1621 0 2.2168 -0.58594 2.2266 -2.4316 l0 -5.5371 z M191.0156125 20 c-1.9531 0 -3.0664 -1.1328 -3.0664 -3.1348 l0 -4.7461 l-1.9727 0 l0 -2.1582 l0.63477 0 c1.0645 0 1.6504 -0.41016 1.6504 -1.9141 l0 -1.3281 l2.5391 0 l0 3.2422 l2.0703 0 l0 2.1582 l-2.0703 0 l0 4.4434 c0 0.89844 0.43945 1.2988 1.1621 1.2988 l0.9082 0 l0 2.1387 l-1.8555 0 z M203.57420625 20.19531 c-3.1934 0 -5.498 -1.9434 -5.498 -5.2246 c0 -3.2617 2.2852 -5.2051 5.498 -5.2051 c3.2324 0 5.5078 1.9434 5.5078 5.2051 c0 3.2813 -2.2852 5.2246 -5.5078 5.2246 z M203.54490625 17.959 c1.6309 0 2.7441 -1.1914 2.7441 -2.9883 s-1.1133 -2.9883 -2.7441 -2.9883 c-1.5723 0 -2.6758 1.1914 -2.6758 2.9883 s1.1035 2.9883 2.6758 2.9883 z M226.914453125 9.766 c2.1484 0 3.5352 1.0938 3.5352 3.1543 l0 7.0801 l-2.8125 0 l0 -6.2793 c0 -1.1816 -0.74219 -1.6992 -1.582 -1.6992 c-1.0059 0 -1.8945 0.57617 -1.8945 2.3145 l0 5.6641 l-2.8418 0 l0 -6.25 c0 -1.2012 -0.72266 -1.7285 -1.6113 -1.7285 c-0.97656 0 -1.8848 0.57617 -1.8848 2.4609 l0 5.5176 l-2.8027 0 l0 -10.039 l2.8027 0 l0 1.1816 c0.66406 -0.88867 1.6797 -1.377 2.9102 -1.377 c1.4551 0 2.5488 0.52734 3.0762 1.5039 c0.70313 -1.0059 1.7773 -1.5039 3.1055 -1.5039 z M245.263671875 17.2754 c0 1.2305 0.11719 2.0117 0.24414 2.4512 l0 0.27344 l-2.627 0 l-0.22461 -1.0938 c-0.75195 0.9082 -2.0508 1.2891 -3.2227 1.2891 c-1.582 0 -3.125 -0.70313 -3.125 -2.793 c0 -2.0801 1.5527 -2.7832 3.6523 -3.2422 l1.6504 -0.37109 c0.71289 -0.16602 0.9668 -0.41016 0.9668 -0.82031 c0 -0.98633 -0.89844 -1.2598 -1.6895 -1.2598 c-1.0156 0 -1.7871 0.40039 -1.9629 1.5332 l-2.4902 -0.44922 c0.41992 -2.0801 1.9434 -3.0273 4.6094 -3.0273 c2.0117 0 4.2188 0.5957 4.2188 3.623 l0 3.8867 z M240.312471875 18.291 c1.3379 0 2.4121 -0.88867 2.4121 -2.8809 l-2.3828 0.67383 c-0.78125 0.18555 -1.3477 0.45898 -1.3477 1.1328 c0 0.72266 0.5957 1.0742 1.3184 1.0742 z M255.585925 20 c-1.9531 0 -3.0664 -1.1328 -3.0664 -3.1348 l0 -4.7461 l-1.9727 0 l0 -2.1582 l0.63477 0 c1.0645 0 1.6504 -0.41016 1.6504 -1.9141 l0 -1.3281 l2.5391 0 l0 3.2422 l2.0703 0 l0 2.1582 l-2.0703 0 l0 4.4434 c0 0.89844 0.43945 1.2988 1.1621 1.2988 l0.9082 0 l0 2.1387 l-1.8555 0 z M264.90231875 8.457 c-0.88867 0 -1.6309 -0.72266 -1.6309 -1.6211 c0 -0.88867 0.74219 -1.6113 1.6309 -1.6113 c0.86914 0 1.6113 0.72266 1.6113 1.6113 c0 0.89844 -0.74219 1.6211 -1.6113 1.6211 z M263.46681875 20 l0 -10.039 l2.832 0 l0 10.039 l-2.832 0 z M277.7343625 20.19531 c-3.1934 0 -5.498 -1.9434 -5.498 -5.2246 c0 -3.2617 2.2852 -5.2051 5.498 -5.2051 c3.2324 0 5.5078 1.9434 5.5078 5.2051 c0 3.2813 -2.2852 5.2246 -5.5078 5.2246 z M277.7050625 17.959 c1.6309 0 2.7441 -1.1914 2.7441 -2.9883 s-1.1133 -2.9883 -2.7441 -2.9883 c-1.5723 0 -2.6758 1.1914 -2.6758 2.9883 s1.1035 2.9883 2.6758 2.9883 z M295.107409375 9.766 c2.4121 0 3.7402 1.25 3.7402 3.4766 l0 6.7578 l-2.8223 0 l0 -6.1523 c0 -1.3379 -0.83008 -1.8262 -1.7969 -1.8262 c-1.1621 0 -2.2168 0.58594 -2.2363 2.4414 l0 5.5371 l-2.8125 0 l0 -10.039 l2.8125 0 l0 1.1133 c0.70313 -0.83008 1.7871 -1.3086 3.1152 -1.3086 z M323.0178125 8.467 l-5.2344 0 l0 3.2031 l4.6387 0 l0 2.5488 l-4.6387 0 l0 3.1934 l5.2344 0 l0 2.5879 l-8.1836 0 l0 -14.111 l8.1836 0 l0 2.5781 z M328.134765625 20 l4.1211 -5.0293 l-4.1211 -5.0098 l3.5156 0 l2.3047 3.1641 l2.3242 -3.1641 l3.4863 0 l-4.1309 5.0195 l4.1309 5.0195 l-3.4863 0 l-2.3047 -3.1445 l-2.3145 3.1445 l-3.5254 0 z M351.044971875 9.766 c2.6465 0 4.834 1.9434 4.834 5.2344 s-2.1875 5.2344 -4.834 5.2344 c-1.3086 0 -2.4805 -0.50781 -3.0762 -1.4258 l0 6.0742 l-2.8125 0 l0 -14.922 l2.666 0 l0.078125 1.3477 c0.55664 -0.99609 1.7773 -1.543 3.1445 -1.543 z M350.410171875 17.9004 c1.4746 0 2.6563 -1.0742 2.6563 -2.9004 s-1.1816 -2.9004 -2.6563 -2.9004 c-1.5039 0 -2.6758 1.1426 -2.6758 2.9004 s1.1719 2.9004 2.6758 2.9004 z M371.288625 14.834 l-0.029297 0.67383 l-7.4414 0 c0.11719 1.6699 1.2305 2.4707 2.5684 2.4707 c1.0059 0 1.7871 -0.46875 2.168 -1.3574 l2.5781 0.38086 c-0.66406 2.0313 -2.4707 3.1934 -4.7266 3.1934 c-3.2422 0 -5.3613 -1.9141 -5.3613 -5.2148 s2.1777 -5.2344 5.2734 -5.2344 c2.8418 0 4.9609 1.5723 4.9707 5.0879 z M366.337925 11.7383 c-1.2793 0 -2.168 0.5957 -2.4414 1.9336 l4.6094 0 c-0.14648 -1.2793 -1.0156 -1.9336 -2.168 -1.9336 z M379.9707125 11.5527 c0.50781 -0.88867 1.8262 -1.709 3.2813 -1.709 l0 2.5098 c-2.1289 0 -3.1445 0.625 -3.1445 2.7539 l0 4.8926 l-2.832 0 l0 -10.039 l2.6953 0 l0 1.5918 z M392.490221875 20 c-1.9531 0 -3.0664 -1.1328 -3.0664 -3.1348 l0 -4.7461 l-1.9727 0 l0 -2.1582 l0.63477 0 c1.0645 0 1.6504 -0.41016 1.6504 -1.9141 l0 -1.3281 l2.5391 0 l0 3.2422 l2.0703 0 l0 2.1582 l-2.0703 0 l0 4.4434 c0 0.89844 0.43945 1.2988 1.1621 1.2988 l0.9082 0 l0 2.1387 l-1.8555 0 z"></path></g>
			</g>
		</svg>
	